<svg viewBox="0 0 406 13" xmlns="http://www.w3.org/2000/svg"><g fill="#A18400" fill-rule="evenodd"><path d="M0 5.672C0 4.856.818 4.04 1.633 4.04c1.136 0 1.946.817 1.946 1.633 0 1.127-.81 1.945-1.946 1.945C.818 7.617 0 6.8 0 5.672zm85.404-.648c.828 0 2.282-.638 3.101-1.466.787 1.148 2.751 1.466 3.408 1.466 1.284.505 4.702 0 6.33 0 0-3.069 3.404-5.024 6.169-5.024 2.281 0 5.842 1.955 5.842 5.024 1.454 0 5.032.505 6.178 0 .809 0 2.769-.318 3.579-1.466.648.828 2.263 1.466 3.082 1.466h6.647c1.145-.318 3.091-.318 6.518-3.4 0 0 0-.506.47-.506.331 0 1.458 1.313 1.458 1.642 0 .32 0 .798-.81.798-.317 0-1.941.828-1.941 2.611 0 1.955 1.624 3.252 1.941 3.252.81 0 .81.316.81.316 0 .81-1.127 1.626-1.458 1.626h-.47c-3.427-3.239-5.373-3.585-6.518-3.897h-6.647c-.819 0-2.434.658-3.082 1.955-.81-1.297-2.77-1.643-3.579-1.955-1.146 0-4.724-.487-6.178-.487 0 3.567-3.561 5.032-5.842 5.032-2.765 0-6.169-1.465-6.169-5.032-1.628 0-5.046.487-6.33.487-.657.312-2.621.658-3.408 1.955-.819-1.297-2.273-1.955-3.101-1.955h-6.656c-1.132.312-3.091.658-6.164 3.897h-.814c-.332 0-1.624-.817-1.624-1.626 0 0 0-.316.805-.316.487 0 1.959-1.297 1.959-3.252 0-1.783-1.472-2.61-1.959-2.61-.805 0-.805-.479-.805-.799 0-.329 1.292-1.642 1.624-1.642.327 0 .327.506.814.506 3.073 3.082 5.032 3.082 6.164 3.4h6.656zm14.302 0c2.425 0 3.082.505 3.082 1.145 0 .81-.657.81-3.082.81 0 2.442 2.425 3.896 4.706 3.896 1.955 0 4.214-1.454 4.214-3.896-2.259 0-3.078 0-3.078-.81 0-.64.819-1.145 3.078-1.145 0-2.264-2.259-3.4-4.214-3.4-2.281 0-4.706 1.136-4.706 3.4zm54.884 2.442c-5.516 0-8.934 1.146-10.549 1.955-.81.646-1.95 1.942-2.272 1.942-.488 0-.488 0-.488-.817 0-.479.81-1.125 1.146-1.934-2.604 0-4.241-.834-4.241-2.443 0-1.145 1.637-1.783 4.241-1.783-.336-.828-1.146-1.626-1.146-1.955 0-.807 0-.807.488-.807.322 0 1.462 1.136 2.272 1.456 1.615 1.306 5.033 2.45 10.549 2.45h5.041V4.385c-.479-.828-.819-1.306-.819-1.955 0-.476.34-.807 1.467-.807.815 0 1.633.331 1.633.807 0 .65-.326 1.127-.818 1.955V5.53h1.628c2.272 0 6.978 0 10.405-.505 3.57-.318 9.412-2.264 11.353-3.906.332-.318.81-.318.81-.318.336 0 .336 0 .336.318 0 .506-4.223 3.906-10.083 4.89v.312c5.86 1.458 10.083 4.555 10.083 5.364 0 .327 0 .327-.336.327 0 0-.478 0-.81-.327-1.941-1.617-7.783-3.56-11.353-3.906-3.427-.312-8.133-.312-10.405-.312h-1.628v1.146c.492.81.818 1.125.818 1.934 0 .33-.818.817-1.633.817-1.127 0-1.467-.488-1.467-.817 0-.809.34-1.125.819-1.934V7.466h-5.041zm26.813-.809c0-.817.644-1.633 1.942-1.633.648 0 1.467.816 1.467 1.633 0 1.121-.819 1.955-1.467 1.955-1.298 0-1.942-.834-1.942-1.955zm26.34.88c-.162 1.128-.649 2.105-1.62 2.922-.815.809-1.95 1.296-3.248 1.296-2.608 0-4.88-1.945-4.88-4.217h-1.955c0 .818-.327 1.624-1.128 2.272-.649.479-1.633.978-2.76.978-.979 0-1.955-.33-2.603-.33-.966 0-1.302 0-1.624.33-.327.638-.327 1.286-.649 1.286-.326 0-.643-.32-.966-.648 0-.967 0-2.264.323-3.24.643-.648 1.614-.98 2.598-.648 2.6.317 3.24 0 3.24-.648 0-.656-.64-.656-3.24-.328-.984 0-1.955-.648-2.28-1.626-.64-.646-.64-2.272-.318-2.592 0-.331 0-.675.317-.675.326 0 .648.675.975.995.322.317.99.638 1.946.317.644-.317 1.633-.317 2.281-.317 2.59 0 3.888 1.944 4.236 3.25h1.606c.327-2.282 2.273-4.245 4.881-4.245 2.277 0 4.55 1.963 4.867 4.245h1.633c.156-.658.64-1.467 1.293-2.123.643-.648 1.614-1.127 2.926-1.127.64 0 1.623 0 2.272.317.975.32 1.623-.317 1.941-.317 0-.651.658-.995.984-.995 0 0 .322.344.322.675.331.637 0 1.606-.322 2.592-.326.978-1.623 1.626-2.599 1.298-1.624-.32-2.598 0-2.598.656 0 .648.974.648 2.598.317.976 0 2.273.33 2.6.979.652.976.652 2.273.321 2.93 0 .639-.322.958-.648.958-.33 0-.658-.648-.658-1.286-.318-.33-.966-.33-1.615-.33-.975 0-1.624.33-2.598.33-2.604 0-3.91-1.955-4.219-3.25h-1.633zm-14.275.649c-.667.976-1.638.976-3.27.976h-.649c0 .152.17.152.17.319h.478c1.633.329 2.922.329 4.228-.32.317-.328.317-.975.317-.975-.317-.331-.644-.331-1.274 0zm6.8.976c.343.648 1.632 1.297 2.92 1.297.985 0 1.964-.65 2.6-1.626l.335-.328c-.336-.32-.336 0-.636 0-.335.328-1.314.657-1.964.657-.974 0-1.623-.33-2.272-.976-.64-.648-.984-.648-1.306-.331-.33.33-.33.65.322 1.307zm11.043 0c1.302.648 2.6.648 4.233.319.322 0 .648 0 .648-.32h-.648c-1.95 0-2.604 0-3.579-.975-.327-.331-.654-.331-.975 0 0 0 0 .647.321.976zM67.847 2.52L6.773 5.46c-1.297.327-1.942.327-1.942.327 0 .313.645.313 1.942.313l61.4 3.256c0-.973.958-2.928 1.946-3.256-.988-.64-2.272-2.273-2.272-3.579m-1.298 5.54L35.362 6.428c-.971 0-1.298-.328-1.298-.328s.327-.313 1.615-.313h32.168c-.653.641-1.298 1.628-1.298 2.274m337.668-.442c-1.154 0-1.964-.81-1.964-1.946 0-.817.81-1.633 1.964-1.633.796 0 1.615.816 1.615 1.633 0 1.137-.82 1.946-1.615 1.946zm-77.121-2.595c1.137-.318 3.092-.318 6.16-3.4.487 0 .487-.487.815-.487.339 0 1.636 1.295 1.636 1.624 0 .319 0 .809-.81.809-.487 0-1.958.817-1.958 2.599 0 1.955 1.47 3.232 1.959 3.232.809 0 .809.338.809.338 0 .808-1.297 1.626-1.636 1.626h-.815c-3.068-3.241-5.023-3.57-6.16-3.898h-6.66c-.823 0-2.273.657-3.087 1.934-.81-1.277-2.756-1.606-3.422-1.934-1.293 0-4.702-.49-6.321-.49 0 3.57-3.413 5.035-6.178 5.035-2.277 0-5.842-1.465-5.842-5.034-1.454 0-5.033.489-6.178.489-.792.328-2.751.657-3.561 1.934-.657-1.277-2.263-1.934-3.091-1.934h-6.647c-1.145.328-3.1.657-6.51 3.898h-.473c-.34 0-1.471-.818-1.471-1.626 0 0 0-.338.818-.338.313 0 1.936-1.277 1.936-3.232 0-1.782-1.623-2.6-1.936-2.6-.818 0-.818-.49-.818-.808 0-.33 1.13-1.624 1.47-1.624.475 0 .475.487.475.487 3.409 3.082 5.364 3.082 6.509 3.4h6.647c.828 0 2.434-.637 3.09-1.454.81 1.136 2.77 1.454 3.562 1.454 1.145.506 4.724 0 6.178 0 0-3.087 3.565-5.023 5.842-5.023 2.765 0 6.178 1.936 6.178 5.023 1.619 0 5.028.506 6.32 0 .667 0 2.613-.318 3.423-1.454.814.817 2.264 1.454 3.087 1.454h6.66zm-25.668-3.4c-1.933 0-4.214 1.137-4.214 3.4 2.28 0 3.087.506 3.087 1.145 0 .809-.806.809-3.087.809 0 2.423 2.28 3.897 4.214 3.897 2.28 0 4.715-1.474 4.715-3.897-2.434 0-3.091 0-3.091-.81 0-.638.657-1.144 3.09-1.144 0-2.263-2.433-3.4-4.714-3.4zm-55.201 5.843v1.147c.478.787.8 1.125.8 1.933 0 .328-.322.818-1.457.818-.815 0-1.616-.49-1.616-.818 0-.808.318-1.146.8-1.933V7.467h-1.618c-2.273 0-6.983 0-10.392.328-3.57.329-9.412 2.273-11.367 3.897-.34.32-.818.32-.818.32-.336 0-.336 0-.336-.32 0-.817 4.227-3.897 10.074-5.37v-.314c-5.847-.984-10.074-4.384-10.074-4.871 0-.336 0-.336.336-.336 0 0 .478 0 .818.336 1.955 1.624 7.797 3.569 11.367 3.887 3.409.506 8.119.506 10.392.506h1.619V4.387c-.483-.817-.801-1.307-.801-1.955 0-.495.8-.808 1.616-.808 1.135 0 1.458.313 1.458.808 0 .648-.323 1.138-.801 1.955V5.53h5.037c5.51 0 8.92-1.143 10.553-2.45.818-.32 1.932-1.456 2.272-1.456.479 0 .479 0 .479.808 0 .329-.82 1.138-1.137 1.955 2.604 0 4.224.637 4.224 1.782 0 1.626-1.62 2.445-4.224 2.445.318.787 1.137 1.454 1.137 1.933 0 .818 0 .818-.48.818-.34 0-1.453-1.297-2.271-1.964-1.633-.787-5.042-1.934-10.553-1.934h-5.037zm-23.723 1.147c-.64 0-1.467-.82-1.467-1.955 0-.818.827-1.635 1.467-1.635 1.298 0 1.946.817 1.946 1.635 0 1.136-.648 1.955-1.946 1.955zm113.212-2.515c.984.33 1.95 2.284 1.95 3.27l61.404-3.27c1.287 0 1.944 0 1.944-.312 0 0-.657 0-1.944-.328L337.998 2.52c0 1.308-1.298 2.94-2.282 3.58m2.282-.313h32.163c1.284 0 1.606.312 1.606.312s-.322.33-1.292.33l-31.18 1.631c0-.646-.648-1.632-1.297-2.273"/></g></svg>